<?xml version="1.0" encoding="UTF-8"?>
<svg xmlns="http://www.w3.org/2000/svg" viewBox="0 0 1294.57 1322.1">
  <defs>
    <style>
      .cls-1 {
        fill: #295e43;
      }

      .cls-2 {
        font-family: Ebrima-Bold, Ebrima;
        font-size: 96.16px;
        font-weight: 700;
      }

      .cls-3 {
        fill: #337657;
      }

      .cls-4 {
        fill: #4a9374;
      }

      .cls-5 {
        fill: #449070;
      }

      .cls-6 {
        fill: #355fa6;
      }

      .cls-7 {
        fill: #2a9dd8;
      }

      .cls-8 {
        fill: #3164ab;
      }

      .cls-9 {
        fill: #5f5c5b;
      }
    </style>
  </defs>
  <g id="Layer_1" data-name="Layer 1">
    <text class="cls-2" transform="translate(126.97 1015.34)"><tspan class="cls-5" x="0" y="0">PlanillaProfesional</tspan><tspan class="cls-7" x="840.66" y="0">.com</tspan></text>
    <g>
      <g>
        <path class="cls-9" d="M659.03,1099.27c5.11,0,9.11,2.17,12,6.51,2.89,4.34,4.34,10.29,4.34,17.85s-1.49,13.82-4.47,18.08c-2.98,4.27-7.04,6.41-12.18,6.41s-9.08-2.01-11.97-6.03h-.81l-1.98,5.19h-9.02v-65.61h11.81v15.26c0,1.94-.16,5.05-.46,9.32h.46c2.76-4.67,6.86-7,12.28-7ZM655.24,1109.55c-2.92,0-5.05.98-6.4,2.93-1.33,1.95-2.03,5.18-2.09,9.68v1.39c0,5.06.69,8.68,2.07,10.88,1.38,2.19,3.57,3.29,6.56,3.29,2.43,0,4.36-1.21,5.79-3.65,1.44-2.43,2.15-5.96,2.15-10.6s-.73-8.11-2.17-10.43c-1.45-2.32-3.41-3.48-5.92-3.48Z"/>
        <path class="cls-9" d="M678.93,1100.15h12.93l8.17,26.52c.69,2.31,1.17,5.03,1.43,8.18h.24c.28-2.9.84-5.62,1.67-8.18l8.01-26.52h12.66l-18.32,53.17c-1.68,4.92-4.07,8.6-7.18,11.05-3.11,2.45-6.75,3.67-10.9,3.67-2.04,0-4.04-.24-6.01-.72v-10.21c1.43.37,2.97.55,4.65.55,2.09,0,3.92-.7,5.49-2.09,1.56-1.39,2.78-3.49,3.65-6.3l.7-2.32-17.19-46.8Z"/>
      </g>
      <g>
        <path class="cls-8" d="M786.89,1149.23h-17.75c-2.19,0-4.11-.11-5.75-.32-1.64-.22-3.07-.55-4.3-1-1.24-.44-2.32-1.05-3.23-1.8-.92-.75-1.74-1.7-2.46-2.83-1.68-2.53-2.65-5.81-2.94-9.83-.3-4.02.14-8.74,1.3-14.14,1.47-6.79,3.69-12.58,6.66-17.35,2.97-4.78,6.49-8.15,10.57-10.14,1.67-.85,3.71-1.5,6.13-1.98,2.43-.48,4.9-.73,7.39-.73h17.3l-2.31,10.73h-16c-5.04,0-9.02,1.61-11.9,4.86-1.12,1.2-2.16,2.96-3.08,5.27-.94,2.31-1.73,5.02-2.4,8.15-.96,4.45-1.36,8.17-1.22,11.18.14,3,.84,5.17,2.09,6.49,1.6,1.8,4.47,2.7,8.6,2.7h15.61"/>
        <path class="cls-8" d="M832.31,1104.74h10.34l-9.23,42.95c-1.49,6.88-4.5,11.64-9.04,14.28-1.28.72-2.77,1.26-4.48,1.61-1.71.36-3.71.54-6,.54h-18.29l1.99-9.28h18.24c.66,0,1.36-.06,2.12-.19.77-.11,1.38-.27,1.82-.45.67-.3,1.19-.74,1.58-1.31.38-.6.75-1.48,1.11-2.71l.43-1.64h-9.07c-2.9,0-5.14-.33-6.73-.98-1.59-.66-2.86-1.81-3.83-3.48-.48-.83-.86-1.68-1.09-2.55-.24-.86-.39-1.84-.4-2.96-.01-1.11.09-2.4.31-3.9.23-1.51.56-3.31,1.02-5.41l5.26-24.51h10.33l-5.03,23.34c-.47,2.28-.8,4.14-.96,5.59-.15,1.44-.14,2.58.06,3.42.2.84.61,1.41,1.25,1.72.65.3,1.5.43,2.55.43h8.33"/>
        <path class="cls-8" d="M868.43,1104.65c3.41,0,6.17.55,8.31,1.67,2.13,1.11,3.75,2.83,4.88,5.17.93,1.81,1.47,3.95,1.58,6.45.13,2.49-.12,5.18-.74,8.07-.92,4.31-2.46,8.12-4.56,11.44-2.12,3.31-4.7,5.92-7.77,7.83-1.02.68-1.97,1.19-2.91,1.58-.92.4-1.92.73-3,1-1.08.27-2.27.45-3.52.54-1.28.09-2.75.14-4.43.14h-16.67l12.91-60.1h10.33l-3.49,16.22M851.91,1139.24h7.55c3.05,0,5.66-1.14,7.85-3.44,2.19-2.3,3.73-5.44,4.59-9.43,1.78-8.29-.55-12.43-7-12.43h-7.54l-5.45,25.31Z"/>
        <path class="cls-8" d="M921.29,1131.24h-21.59c-.26,1.68-.28,3.01-.07,3.95.19.94.68,1.78,1.44,2.52.58.6,1.31,1.01,2.19,1.21.87.22,2.12.32,3.75.32h12.55l-2.01,9.29h-13.61c-2.96,0-5.31-.3-7.04-.91-1.73-.6-3.27-1.67-4.63-3.24-3.61-4.03-4.54-10.15-2.78-18.37.82-3.85,2.24-7.41,4.25-10.68,1.99-3.27,4.31-5.79,6.94-7.53,1.66-1.14,3.44-1.95,5.29-2.42,1.88-.49,4.07-.72,6.63-.72h14.39l-2,9.28h-13.63c-1.38,0-2.57.12-3.6.36-1.02.25-1.91.68-2.65,1.3-.74.61-1.39,1.43-1.94,2.48-.56,1.04-1.06,2.34-1.49,3.87h21.58"/>
        <path class="cls-8" d="M948.1,1105.34c3.1,0,5.46.23,7.04.72,1.59.47,2.82,1.33,3.73,2.58.87,1.19,1.34,2.68,1.42,4.46.06,1.79-.25,4.34-.95,7.64l-.93,4.33h-9.87l.51-2.34c.66-3.12.65-5.26-.05-6.39-.68-1.14-2.27-1.71-4.75-1.71h-2.96l-7.43,34.61h-10.33l9.45-43.89"/>
        <path class="cls-8" d="M962.34,1114.62l1.99-9.28h6.73l.57-2.61c1.02-4.82,2.64-8.29,4.82-10.41,2.18-2.14,5.17-3.2,8.97-3.2h9.03l-2,9.29h-5.2c-1.58,0-2.79.38-3.61,1.14-.84.76-1.43,2.02-1.82,3.78l-.42,2.01h9.55l-1.98,9.28h-9.56l-7.44,34.61h-10.33l7.44-34.61"/>
        <path class="cls-8" d="M1021.87,1104.74h10.33l-9.41,43.79h-20.14c-1.48,0-2.76-.07-3.82-.18-1.08-.12-2-.32-2.79-.58-.78-.27-1.46-.63-2.03-1.08-.56-.43-1.12-.99-1.64-1.64-1.98-2.85-2.33-7.28-1.03-13.28l5.81-27.03h10.32l-6.07,28.2c-.41,1.99-.32,3.53.3,4.65.63,1.11,1.69,1.66,3.2,1.66h9.55"/>
        <path class="cls-8" d="M1067.7,1131.24h-21.57c-.27,1.68-.3,3.01-.09,3.95.21.94.69,1.78,1.45,2.52.59.6,1.31,1.01,2.18,1.21.87.22,2.14.32,3.76.32h12.57l-2.01,9.29h-13.62c-2.95,0-5.3-.3-7.02-.91-1.74-.6-3.29-1.67-4.63-3.24-3.63-4.03-4.56-10.15-2.78-18.37.82-3.85,2.24-7.41,4.24-10.68,2.02-3.27,4.32-5.79,6.94-7.53,1.67-1.14,3.44-1.95,5.32-2.42,1.85-.49,4.06-.72,6.62-.72h14.38l-1.99,9.28h-13.62c-1.38,0-2.59.12-3.6.36-1.03.25-1.91.68-2.66,1.3-.75.61-1.4,1.43-1.94,2.48-.56,1.04-1.05,2.34-1.49,3.87h21.58"/>
        <polyline class="cls-8" points="1069.94 1149.23 1082.86 1089.12 1093.19 1089.12 1080.27 1149.23"/>
        <rect class="cls-6" x="1094.42" y="1141.64" width="5.53" height="6.01"/>
        <path class="cls-6" d="M1129.32,1139.84c-1.19,2.94-2.88,5.23-5.07,6.85-2.17,1.65-4.6,2.47-7.29,2.47-3.6,0-6.68-1.37-9.23-4.09-2.55-2.73-3.82-6.02-3.82-9.88s1.28-7.15,3.82-9.88c2.55-2.73,5.62-4.09,9.23-4.09,2.64,0,5.06.81,7.24,2.43,2.17,1.62,3.86,3.89,5.06,6.82h-4.78c-1.87-3.05-4.37-4.58-7.52-4.58-2.4,0-4.46.9-6.14,2.73-1.71,1.82-2.55,4-2.55,6.58s.84,4.77,2.55,6.59c1.68,1.81,3.74,2.73,6.14,2.73,3.19,0,5.7-1.56,7.52-4.67"/>
        <path class="cls-6" d="M1156.1,1135.19c0,3.85-1.27,7.14-3.81,9.88-2.56,2.73-5.63,4.09-9.23,4.09s-6.68-1.37-9.23-4.09c-2.54-2.73-3.82-6.02-3.82-9.88s1.28-7.15,3.82-9.88c2.54-2.73,5.62-4.09,9.23-4.09s6.67,1.37,9.23,4.09c2.55,2.73,3.81,6.02,3.81,9.88M1151.76,1135.19c0-2.58-.86-4.76-2.55-6.58-1.7-1.83-3.75-2.73-6.15-2.73s-4.46.9-6.15,2.73c-1.7,1.82-2.56,4-2.56,6.58s.86,4.77,2.56,6.59c1.69,1.81,3.74,2.73,6.15,2.73s4.45-.92,6.15-2.73c1.69-1.82,2.55-4.01,2.55-6.59"/>
        <path class="cls-6" d="M1190.27,1147.83h-4.34v-17.3c0-1.33-.49-2.44-1.47-3.33-.98-.89-2.15-1.33-3.51-1.33s-2.53.43-3.51,1.33c-.97.88-1.46,1.99-1.46,3.33v17.3h-4.34v-17.3c0-1.33-.5-2.44-1.47-3.33-.98-.89-2.15-1.33-3.51-1.33s-2.54.43-3.5,1.33c-.98.88-1.47,1.99-1.47,3.33v17.3h-4.34v-26.56h4.34v1.28c1.54-.88,3.2-1.33,4.98-1.33,2.89,0,5.27,1.11,7.14,3.33,1.86-2.22,4.25-3.33,7.14-3.33,2.52,0,4.72.89,6.56,2.67,1.85,1.78,2.75,3.99,2.75,6.65"/>
      </g>
    </g>
  </g>
  <g id="Layer_2" data-name="Layer 2">
    <g>
      <path class="cls-7" d="M577.08,277.69c-38.84-6.42-77.39,7.48-103.12,37.21-16.86,19.48-26.28,43.33-27.25,69-.47,12.37-10.93,22.82-23.25,21.56-13.81-1.39-22.22-9.66-21.58-23.25,1.7-35.44,14.9-69.79,38.16-96.67,36.03-41.63,89.99-61.11,144.37-52.11,12.22,2.02,20.48,13.57,18.47,25.79-2.03,12.22-13.58,20.49-25.79,18.47Z"/>
      <path class="cls-7" d="M1099.31,618.99c9.6,34.11-6.76,66.12-27.87,80.11-6.82,4.51-15.86,2.55-20.52-4.17-3.78-5.45-4.74-13.42,4.16-20.52,9.53-7.6,21.74-25.9,15.71-47.4-2.21-7.86,2.38-16.05,10.25-18.26,7.88-2.21,16.06,2.37,18.27,10.25Z"/>
      <path class="cls-7" d="M1064.84,458.32c.9-7.73,1.35-15.43,1.35-23.03,0-114.56-93.2-207.76-207.75-207.76-34.49,0-67.75,8.41-97.75,24.56-49.18-71.18-130.15-114.29-217.93-114.29-146.17,0-265.06,118.89-265.06,265.06,0,14.55,1.2,29.05,3.59,43.39-102.63,4.29-184.78,89.12-184.78,192.79s86.56,192.97,192.97,192.97h111.61v-57.44h-71.52v-.31h-40.09c-74.58,0-135.22-60.65-135.22-135.22s60.64-135.23,135.22-135.23h67.96l-12.07-37.69c-6.59-20.55-9.92-41.84-9.92-63.27,0-114.32,93-207.32,207.31-207.32,76.82,0,147,42.22,183.14,110.23l15.82,29.77,26.99-20.23c26.24-19.65,57.27-30.04,89.75-30.04,82.71,0,150,67.3,150,150.01,0,11.8-1.56,24.03-4.65,36.37l-7.24,28.96,29.21,6.27c61.85,13.26,106.76,68.85,106.76,132.15,0,74.57-60.68,135.22-135.25,135.22h-121.43v57.75h121.43c106.42,0,192.99-86.57,192.99-192.97,0-80.86-51.35-152.91-125.43-180.72Z"/>
    </g>
    <path class="cls-4" d="M817.12,473.38c-7.68,0-15.09.07-22.49-.09-.94-.02-2.26-1.09-2.71-2.01-2.05-4.2-3.49-8.74-5.85-12.76-3.29-5.61-7.03-10.98-10.87-16.24-3.98-5.45-9.51-7.7-16.3-6.99-11.38,1.19-22.8,1.97-34.14,3.43-28.18,3.63-55.74,10.08-82.21,20.44-13.66,5.35-26.8,12.03-40.16,18.15-1.57.72-3.03,1.67-4.94,2.74,23.97,42.38,46.42,85.29,67.37,128.97,20.95,43.7,40.39,88.06,58.36,132.89,55.96-26.94,114.35-40.79,176.36-37.34-21.19,1.18-42.01,4.69-62.4,10.77-33.85,10.08-64.81,26.14-93.8,46.03-14.1,9.68-27.56,20.3-41.3,30.5-1.2.89-2.34,1.86-3.82,3.05-36.25-117.45-91.33-224.73-166.59-322.04,6.34-3.59,12.33-7.13,18.45-10.43,35.5-19.1,73.22-32.4,112.14-42.5,31.34-8.13,63.1-14.16,95.19-18.38,5.24-.69,10.61-.88,15.89-.6,2.12.11,4.7,1.61,6.11,3.29,15.31,18.09,28.57,37.43,35.64,60.39.64,2.08,1.09,4.21,1.61,6.33.13.51.19,1.04.44,2.39Z"/>
    <path class="cls-3" d="M493.44,473.26c94.26,87.01,151.87,195.51,186.69,317.46-57.35-127.36-143.3-231.22-257.04-312.73,1.19-1.1,2.16-2.05,3.18-2.93,54.07-47.01,116.17-78.96,184.94-98.24,14.67-4.11,29.57-7.36,44.37-11,3.39-.83,6.43-.2,9.17,2.09,8.85,7.42,17.79,14.74,26.62,22.19,3.44,2.91,3.14,5.24-1.23,6.43-8.6,2.35-17.29,4.46-26.04,6.14-60.81,11.67-116.93,34.77-168.65,68.73-.46.3-.92.58-1.36.91-.16.12-.24.34-.65.95Z"/>
    <path class="cls-1" d="M494.98,654.96c9.33,4.57,18.77,9.21,28.5,13.98-3.09,6.23-6.07,12.24-9.31,18.79,56.95,20,103.72,54.28,142.77,100.97-1.14-.57-1.56-.71-1.89-.96-39.94-29.44-84.24-50.25-131.05-66.04-12.78-4.31-25.78-7.96-38.68-11.91-.83-.25-1.68-.45-2.51-.72-6.76-2.14-9.05-6.23-6.31-12.79,5.71-13.66,11.8-27.15,17.74-40.71.08-.17.32-.27.74-.6Z"/>
  </g>
</svg>